<svg xmlns="http://www.w3.org/2000/svg" viewBox="0 0 500 500"><g id="freepik--background-complete--inject-71"><rect x="416.78" y="398.49" width="33.12" height="0.25" style="fill:#ebebeb"></rect><rect x="322.53" y="401.21" width="8.69" height="0.25" style="fill:#ebebeb"></rect><rect x="396.59" y="389.21" width="19.19" height="0.25" style="fill:#ebebeb"></rect><rect x="52.46" y="390.89" width="43.19" height="0.25" style="fill:#ebebeb"></rect><rect x="104.56" y="390.89" width="6.33" height="0.25" style="fill:#ebebeb"></rect><rect x="131.47" y="395.11" width="93.68" height="0.25" style="fill:#ebebeb"></rect><path d="M237,337.8H43.92a5.71,5.71,0,0,1-5.71-5.71V60.66A5.71,5.71,0,0,1,43.92,55H237a5.71,5.71,0,0,1,5.71,5.71V332.09A5.71,5.71,0,0,1,237,337.8ZM43.92,55.2a5.47,5.47,0,0,0-5.46,5.46V332.09a5.47,5.47,0,0,0,5.46,5.46H237a5.47,5.47,0,0,0,5.46-5.46V60.66A5.47,5.47,0,0,0,237,55.2Z" style="fill:#ebebeb"></path><path d="M453.31,337.8H260.21a5.72,5.72,0,0,1-5.71-5.71V60.66A5.72,5.72,0,0,1,260.21,55h193.1A5.71,5.71,0,0,1,459,60.66V332.09A5.71,5.71,0,0,1,453.31,337.8ZM260.21,55.2a5.47,5.47,0,0,0-5.46,5.46V332.09a5.47,5.47,0,0,0,5.46,5.46h193.1a5.47,5.47,0,0,0,5.46-5.46V60.66a5.47,5.47,0,0,0-5.46-5.46Z" style="fill:#ebebeb"></path><rect y="382.4" width="500" height="0.25" style="fill:#ebebeb"></rect><rect x="251.51" y="290.46" width="75.81" height="81.59" style="fill:#e6e6e6"></rect><rect x="329.36" y="284.39" width="9.53" height="98.25" style="fill:#e6e6e6"></rect><rect x="263.57" y="296.89" width="6.21" height="30.49" style="fill:#fafafa"></rect><rect x="289.33" y="296.89" width="6.21" height="30.49" style="fill:#f5f5f5"></rect><rect x="269.78" y="299.03" width="6.21" height="28.35" style="fill:#f5f5f5"></rect><rect x="283.12" y="299.03" width="6.21" height="28.35" style="fill:#fafafa"></rect><rect x="279.1" y="296.89" width="4.01" height="30.49" style="fill:#ebebeb"></rect><rect x="276" y="299.03" width="3.11" height="28.35" style="fill:#fafafa"></rect><rect x="295.54" y="296.89" width="6.21" height="30.49" style="fill:#ebebeb"></rect><rect x="301.75" y="299.03" width="6.21" height="28.35" style="fill:#e6e6e6"></rect><rect x="315.08" y="299.03" width="6.21" height="28.35" style="fill:#e6e6e6"></rect><rect x="311.07" y="296.89" width="4.01" height="30.49" style="fill:#fafafa"></rect><rect x="307.96" y="299.03" width="3.11" height="28.35" style="fill:#ebebeb"></rect><rect x="321.29" y="297.61" width="3.11" height="29.77" style="fill:#fafafa"></rect><rect x="318.19" y="337.75" width="6.21" height="30.49" transform="translate(642.58 706) rotate(180)" style="fill:#fafafa"></rect><rect x="292.43" y="337.75" width="6.21" height="30.49" transform="translate(591.08 706) rotate(180)" style="fill:#fafafa"></rect><rect x="311.98" y="339.9" width="6.21" height="28.35" transform="translate(630.16 708.14) rotate(180)" style="fill:#f0f0f0"></rect><rect x="298.64" y="339.9" width="6.21" height="28.35" transform="translate(603.5 708.14) rotate(180)" style="fill:#ebebeb"></rect><rect x="304.86" y="337.75" width="4.01" height="30.49" transform="translate(613.72 706) rotate(180)" style="fill:#fafafa"></rect><rect x="308.87" y="339.9" width="3.11" height="28.35" transform="translate(620.84 708.14) rotate(180)" style="fill:#f5f5f5"></rect><rect x="286.22" y="337.75" width="6.21" height="30.49" transform="translate(578.65 706) rotate(180)" style="fill:#ebebeb"></rect><rect x="280.01" y="339.9" width="6.21" height="28.35" transform="translate(566.23 708.14) rotate(180)" style="fill:#f5f5f5"></rect><rect x="266.68" y="339.9" width="6.21" height="28.35" transform="translate(539.57 708.14) rotate(180)" style="fill:#e6e6e6"></rect><rect x="272.89" y="337.75" width="4.01" height="30.49" transform="translate(549.79 706) rotate(180)" style="fill:#fafafa"></rect><rect x="259.56" y="337.75" width="4.01" height="30.49" transform="translate(523.13 706) rotate(180)" style="fill:#fafafa"></rect><rect x="276.9" y="339.9" width="3.11" height="28.35" transform="translate(556.91 708.14) rotate(180)" style="fill:#ebebeb"></rect><rect x="263.57" y="338.48" width="3.11" height="29.77" transform="translate(530.25 706.72) rotate(180)" style="fill:#f0f0f0"></rect><path d="M326.93,284.39H249.11v92.75h75.28v5.51h5.08V284.39Zm-2.54,83.86H253.9V332.49h70.49Zm0-40.84H253.9V293.29h70.49Z" style="fill:#f0f0f0"></path><rect x="175.58" y="290.46" width="75.81" height="81.59" transform="translate(426.96 662.52) rotate(180)" style="fill:#e6e6e6"></rect><rect x="178.49" y="376.14" width="9.53" height="6.5" transform="translate(366.51 758.79) rotate(180)" style="fill:#e6e6e6"></rect><rect x="242.62" y="296.89" width="6.21" height="30.49" transform="translate(491.45 624.27) rotate(180)" style="fill:#fafafa"></rect><rect x="216.86" y="296.89" width="6.21" height="30.49" transform="translate(439.94 624.27) rotate(180)" style="fill:#f5f5f5"></rect><rect x="236.41" y="299.03" width="6.21" height="28.35" transform="translate(479.02 626.41) rotate(180)" style="fill:#f5f5f5"></rect><rect x="223.07" y="299.03" width="6.21" height="28.35" transform="translate(452.36 626.41) rotate(180)" style="fill:#fafafa"></rect><rect x="229.29" y="296.89" width="4.01" height="30.49" transform="translate(462.59 624.27) rotate(180)" style="fill:#ebebeb"></rect><rect x="233.3" y="299.03" width="3.11" height="28.35" transform="translate(469.71 626.41) rotate(180)" style="fill:#fafafa"></rect><rect x="214.75" y="296.89" width="6.21" height="30.49" transform="translate(435.7 624.27) rotate(180)" style="fill:#ebebeb"></rect><rect x="208.54" y="299.03" width="6.21" height="28.35" transform="translate(423.28 626.41) rotate(180)" style="fill:#e6e6e6"></rect><rect x="195.2" y="299.03" width="6.21" height="28.35" transform="translate(396.62 626.41) rotate(180)" style="fill:#e6e6e6"></rect><rect x="201.42" y="296.89" width="4.01" height="30.49" transform="translate(406.85 624.27) rotate(180)" style="fill:#fafafa"></rect><rect x="205.43" y="299.03" width="3.11" height="28.35" transform="translate(413.97 626.41) rotate(180)" style="fill:#ebebeb"></rect><rect x="192.1" y="297.61" width="3.11" height="29.77" transform="translate(387.3 624.99) rotate(180)" style="fill:#f5f5f5"></rect><rect x="189.18" y="337.75" width="6.21" height="30.49" style="fill:#fafafa"></rect><rect x="214.94" y="337.75" width="6.21" height="30.49" style="fill:#fafafa"></rect><rect x="195.39" y="339.9" width="6.21" height="28.35" style="fill:#f5f5f5"></rect><rect x="208.72" y="339.9" width="6.21" height="28.35" style="fill:#ebebeb"></rect><rect x="204.71" y="337.75" width="4.01" height="30.49" style="fill:#fafafa"></rect><rect x="201.6" y="339.9" width="3.11" height="28.35" style="fill:#f5f5f5"></rect><rect x="217.05" y="337.75" width="6.21" height="30.49" style="fill:#ebebeb"></rect><rect x="223.26" y="339.9" width="6.21" height="28.35" style="fill:#f5f5f5"></rect><rect x="236.59" y="339.9" width="6.21" height="28.35" style="fill:#e6e6e6"></rect><rect x="232.58" y="337.75" width="4.01" height="30.49" style="fill:#fafafa"></rect><rect x="245.09" y="337.75" width="4.01" height="30.49" style="fill:#fafafa"></rect><rect x="229.47" y="339.9" width="3.11" height="28.35" style="fill:#ebebeb"></rect><rect x="242.81" y="338.48" width="3.11" height="29.77" style="fill:#ebebeb"></rect><path d="M173.42,284.39v98.26h5.08v-5.51h75.28V284.39H173.42Zm5.08,48.1H249v35.76H178.5Zm0-39.2H249v34.12H178.5Z" style="fill:#f0f0f0"></path><rect x="403.78" y="186.52" width="6.18" height="196.12" style="fill:#ebebeb"></rect><polygon points="388.97 382.65 384.53 382.65 392.28 191.52 396.71 191.52 388.97 382.65" style="fill:#ebebeb"></polygon><polygon points="426.53 382.65 430.96 382.65 423.22 191.52 418.78 191.52 426.53 382.65" style="fill:#ebebeb"></polygon><polygon points="436.1 276.92 378.18 276.92 383.76 197.16 441.68 197.16 436.1 276.92" style="fill:#f0f0f0"></polygon><polygon points="383.2 205.07 391.66 197.16 383.76 197.16 383.2 205.07" style="fill:#e6e6e6"></polygon><polygon points="433.77 197.16 441.13 205.07 441.68 197.16 433.77 197.16" style="fill:#e6e6e6"></polygon><polygon points="378.18 276.92 386.09 276.92 378.73 269.01 378.18 276.92" style="fill:#e6e6e6"></polygon><polygon points="436.66 269.01 428.2 276.92 436.1 276.92 436.66 269.01" style="fill:#e6e6e6"></polygon><path d="M400,258s-16.94-17.41-10.94-23.48S400,258,400,258Z" style="fill:#f5f5f5"></path><path d="M404.2,250.13s-3.29-38.7,5.64-37.7S404.2,250.13,404.2,250.13Z" style="fill:#fafafa"></path><path d="M410.26,254.33S421,233,429.78,237,410.26,254.33,410.26,254.33Z" style="fill:#fafafa"></path><rect x="370.49" y="275.98" width="74.03" height="10.51" style="fill:#e6e6e6"></rect><rect x="384.63" y="311.49" width="46.06" height="5.01" style="fill:#f0f0f0"></rect><path d="M94.38,350.14s-7.28-34.39,6-53-12-.22-14.89,17.22c0,0-4.35-31.18,8.51-53.12s-11.2-3.93-13.24,18.68c0,0-3.94-27.82,2-43.46s-4.37-5.58-8.32,4.22,1.23,34.07,1.23,34.07-10.31-44.87-20.07-41.3,14.59,33,18,48.27c0,0-11.51-20.59-20.24-16.3S66.8,271.81,77,302.5l3.58,14.39S70,296.58,63.05,303,83.59,320.46,90,351.24Z" style="fill:#ebebeb"></path><path d="M63.86,360.65h63a0,0,0,0,1,0,0v11a11,11,0,0,1-11,11h-41a11,11,0,0,1-11-11v-11A0,0,0,0,1,63.86,360.65Z" style="fill:#ebebeb"></path><rect x="55.61" y="347.95" width="79.5" height="19.7" rx="4.21" style="fill:#f5f5f5"></rect><path d="M93,352.12s-1.53-43.36-23-61.73,14.29-3.82,23,16.2c0,0-4.08-38.65-26-61.09s12.25-8,21.43,18.43c0,0-3.57-34.5-15.3-51.47s3.57-8,11.22,2.58S93,256.21,93,256.21s-1-56.82,11.74-55.45S97,244.6,97.54,263.93c0,0,7.66-28.09,19.39-25.56s-14.28,11.72-17.35,51.51v18.3s6.64-27.48,16.84-21.87-19.39,27-17.86,65.81Z" style="fill:#f5f5f5"></path></g><g id="freepik--Shadow--inject-71"><ellipse id="freepik--path--inject-71" cx="245.18" cy="412.39" rx="193.89" ry="11.32" style="fill:#f5f5f5"></ellipse></g><g id="freepik--Elements--inject-71"><polygon points="127.18 268.16 113.47 236.36 155.89 218.07 127.18 268.16" style="fill:#407BFF"></polygon><polygon points="127.18 268.16 113.47 236.36 155.89 218.07 127.18 268.16" style="opacity:0.2"></polygon><path d="M190.34,274a17.39,17.39,0,1,1-31.9-13.87Z" style="fill:#407BFF"></path><path d="M180.13,260.85h-2.4V251a1.56,1.56,0,0,0-1.55-1.55h-7.1a4,4,0,0,1-4-3.95v-7.1a1.56,1.56,0,0,0-1.55-1.55h-7.1a4,4,0,0,1-3.95-3.95v-7.1a1.56,1.56,0,0,0-1.55-1.55h-7.1a4,4,0,0,1-3.95-4v-7.1a1.56,1.56,0,0,0-1.56-1.55h-9.88v-2.4h9.88a4,4,0,0,1,4,3.95v7.1a1.54,1.54,0,0,0,1.55,1.55H151a4,4,0,0,1,4,3.95v7.1a1.54,1.54,0,0,0,1.55,1.55h7.1a4,4,0,0,1,3.95,4v7.1a1.54,1.54,0,0,0,1.55,1.55h7.1a4,4,0,0,1,3.95,4Z" style="fill:#407BFF"></path><g style="opacity:0.5"><path d="M180.13,260.85h-2.4V251a1.56,1.56,0,0,0-1.55-1.55h-7.1a4,4,0,0,1-4-3.95v-7.1a1.56,1.56,0,0,0-1.55-1.55h-7.1a4,4,0,0,1-3.95-3.95v-7.1a1.56,1.56,0,0,0-1.55-1.55h-7.1a4,4,0,0,1-3.95-4v-7.1a1.56,1.56,0,0,0-1.56-1.55h-9.88v-2.4h9.88a4,4,0,0,1,4,3.95v7.1a1.54,1.54,0,0,0,1.55,1.55H151a4,4,0,0,1,4,3.95v7.1a1.54,1.54,0,0,0,1.55,1.55h7.1a4,4,0,0,1,3.95,4v7.1a1.54,1.54,0,0,0,1.55,1.55h7.1a4,4,0,0,1,3.95,4Z" style="fill:#fff"></path></g><rect x="185.91" y="219.72" width="23.74" height="23.74" transform="translate(221.69 -72.02) rotate(45)" style="fill:#407BFF"></rect><rect x="185.91" y="219.72" width="23.74" height="23.74" transform="translate(221.69 -72.02) rotate(45)" style="fill:#fff;opacity:0.2"></rect><path d="M274.84,145.33c-3.78-13.23-7-29.63-20.83-26.46-7.55,1.74-5.51-8.85-5-12.51s4.58-6.94,7.85-5.23c1.43.75,2.34,2.22,3.64,3.18,3.23,2.37,8.08.86,10.72-2.15s3.67-7.06,4.74-10.92,2.4-7.88,5.42-10.51a10.93,10.93,0,0,1,17,13.1c5.49-.54,9.85-4.84,13.09-9.31s6-9.49,10.43-12.76,11.4-4.08,15.1,0c3.95,4.36,2,11.58-1.92,16S325.72,95,321.78,99.41s-6.06,11.51-2.24,16c2.91,3.42,7.9,3.85,12.25,5s9,3.66,10.82,7.9-.31,10.25-4.87,11c-5.2.86-8.9-4.73-11.39-9.38s-7.13-9.89-12-7.91c-5.09,2.06-4.48,9.47-2.45,14.58a82.5,82.5,0,0,0,8.81,16.5c2.37,3.44,5,8,2.57,11.39-2.75,3.74-9.1,1.44-11.44-2.56-3.46-6-3-20.25-13.23-19.18-2.67.28-4.9,3.11-7.51,3.83C286.43,147.84,276.12,149.81,274.84,145.33Z" style="fill:#407BFF"></path><path d="M274.84,145.33c-3.78-13.23-7-29.63-20.83-26.46-7.55,1.74-5.51-8.85-5-12.51s4.58-6.94,7.85-5.23c1.43.75,2.34,2.22,3.64,3.18,3.23,2.37,8.08.86,10.72-2.15s3.67-7.06,4.74-10.92,2.4-7.88,5.42-10.51a10.93,10.93,0,0,1,17,13.1c5.49-.54,9.85-4.84,13.09-9.31s6-9.49,10.43-12.76,11.4-4.08,15.1,0c3.95,4.36,2,11.58-1.92,16S325.72,95,321.78,99.41s-6.06,11.51-2.24,16c2.91,3.42,7.9,3.85,12.25,5s9,3.66,10.82,7.9-.31,10.25-4.87,11c-5.2.86-8.9-4.73-11.39-9.38s-7.13-9.89-12-7.91c-5.09,2.06-4.48,9.47-2.45,14.58a82.5,82.5,0,0,0,8.81,16.5c2.37,3.44,5,8,2.57,11.39-2.75,3.74-9.1,1.44-11.44-2.56-3.46-6-3-20.25-13.23-19.18-2.67.28-4.9,3.11-7.51,3.83C286.43,147.84,276.12,149.81,274.84,145.33Z" style="fill:#fff;opacity:0.1"></path><path d="M358.63,111a3.12,3.12,0,0,0,.61,2.48,2.85,2.85,0,0,0,2.12,1.2,3.91,3.91,0,0,0,3.45-3.42,2.62,2.62,0,0,0-1.27-2.14A3.29,3.29,0,0,0,358.63,111Z" style="fill:#407BFF"></path><path d="M340.94,163.23a2.3,2.3,0,0,0,.46,1.83A2.06,2.06,0,0,0,343,166a2.45,2.45,0,0,0,1.77-.88,2.51,2.51,0,0,0,.78-1.65,1.94,1.94,0,0,0-.94-1.58A2.45,2.45,0,0,0,340.94,163.23Z" style="fill:#407BFF"></path><path d="M293.2,68.41a6.24,6.24,0,0,0,.89,4.34,4.06,4.06,0,0,0,3.08,2.1,4.64,4.64,0,0,0,3.49-2.1,6.38,6.38,0,0,0,1.52-3.89,4.84,4.84,0,0,0-1.84-3.74C297.79,63.18,293.9,64.67,293.2,68.41Z" style="fill:#407BFF"></path><path d="M342.49,79.44a6.14,6.14,0,0,0,1.23,5A5.73,5.73,0,0,0,348,86.81,7.84,7.84,0,0,0,354.85,80a5.27,5.27,0,0,0-2.53-4.28C348.8,73.47,343.45,75.17,342.49,79.44Z" style="fill:#407BFF"></path><path d="M342.49,79.44a6.14,6.14,0,0,0,1.23,5A5.73,5.73,0,0,0,348,86.81,7.84,7.84,0,0,0,354.85,80a5.27,5.27,0,0,0-2.53-4.28C348.8,73.47,343.45,75.17,342.49,79.44Z" style="fill:#fff;opacity:0.1"></path><path d="M224.53,108.2s1.41-41.18,17-38.52S224.53,108.2,224.53,108.2Z" style="fill:#407BFF"></path><path d="M213.19,97.32S189,78.48,196.32,71.81,213.19,97.32,213.19,97.32Z" style="fill:#407BFF"></path><path d="M213.19,97.32S189,78.48,196.32,71.81,213.19,97.32,213.19,97.32Z" style="fill:#fff;opacity:0.5"></path><path d="M202.72,178.2s10.51-23.65,19.25-18S202.72,178.2,202.72,178.2Z" style="fill:#407BFF"></path><path d="M202.72,178.2s10.51-23.65,19.25-18S202.72,178.2,202.72,178.2Z" style="opacity:0.2"></path><path d="M156.81,180.09s-10.93-13.54-15.63-8.37S156.81,180.09,156.81,180.09Z" style="fill:#407BFF"></path><path d="M156.81,180.09s-10.93-13.54-15.63-8.37S156.81,180.09,156.81,180.09Z" style="fill:#fff;opacity:0.5"></path></g><g id="freepik--light-bulb--inject-71"><path d="M213.45,126.61a39.68,39.68,0,1,0-78.82,9.31c1.87,15.78,15.69,25,25.11,36.55,2.92,3.58,4.36,18.09,4.36,18.09l33.42-3.95s-2-14.45,0-18.61C204,154.57,215.31,142.4,213.45,126.61Z" style="fill:#407BFF"></path><path d="M164.81,190.79h33.66a0,0,0,0,1,0,0v2.51a7.14,7.14,0,0,1-7.14,7.14H171.95a7.14,7.14,0,0,1-7.14-7.14v-2.51A0,0,0,0,1,164.81,190.79Z" transform="translate(-21.69 22.65) rotate(-6.74)" style="fill:#263238"></path><path d="M175.07,202.62H190.8a0,0,0,0,1,0,0v.73a7.14,7.14,0,0,1-7.14,7.14H182.2a7.14,7.14,0,0,1-7.14-7.14v-.73a0,0,0,0,1,0,0Z" transform="translate(-22.96 22.88) rotate(-6.73)" style="fill:#263238"></path><path d="M175.07,202.62H190.8a0,0,0,0,1,0,0v.73a7.14,7.14,0,0,1-7.14,7.14H182.2a7.14,7.14,0,0,1-7.14-7.14v-.73a0,0,0,0,1,0,0Z" transform="translate(-22.96 22.88) rotate(-6.73)" style="fill:#fff;opacity:0.5"></path><path d="M213.45,126.61a39.69,39.69,0,0,0-28.33-33.46c-9.31-.9-23.47-1.31-22.77,4.59,1,8.76,20.55,2.73,25.51,7.06s-13.12,15.62-6.8,19.86,17.14-7.57,17.14-7.57-2.76,16.56,2,17.17,2.69-12.45,5.7-12.81,7.09,6.07,5.15,21.3A33.16,33.16,0,0,0,213.45,126.61Z" style="fill:#407BFF"></path><path d="M213.45,126.61a39.69,39.69,0,0,0-28.33-33.46c-9.31-.9-23.47-1.31-22.77,4.59,1,8.76,20.55,2.73,25.51,7.06s-13.12,15.62-6.8,19.86,17.14-7.57,17.14-7.57-2.76,16.56,2,17.17,2.69-12.45,5.7-12.81,7.09,6.07,5.15,21.3A33.16,33.16,0,0,0,213.45,126.61Z" style="fill:#fff;opacity:0.5"></path><path d="M190.76,129.35S176,136.08,180.27,141.4,190.76,129.35,190.76,129.35Z" style="fill:#407BFF"></path><path d="M190.76,129.35S176,136.08,180.27,141.4,190.76,129.35,190.76,129.35Z" style="fill:#fff;opacity:0.7000000000000001"></path><path d="M147.78,93.19a50.2,50.2,0,0,0-6.09,5.29c-.33.35.2.88.53.53a49.36,49.36,0,0,1,5.93-5.17c.39-.29,0-.94-.37-.65Z" style="fill:#407BFF"></path><path d="M136.08,105.49a48.53,48.53,0,0,0-7.35,31.25c.05.47.8.48.75,0a47.89,47.89,0,0,1,7.25-30.87c.26-.41-.39-.78-.65-.38Z" style="fill:#407BFF"></path><g style="opacity:0.7000000000000001"><path d="M164.81,190.79h33.66a0,0,0,0,1,0,0v2.51a7.14,7.14,0,0,1-7.14,7.14H171.95a7.14,7.14,0,0,1-7.14-7.14v-2.51A0,0,0,0,1,164.81,190.79Z" transform="translate(-21.69 22.65) rotate(-6.74)" style="fill:#fff"></path></g></g><g id="freepik--Character--inject-71"><polygon points="317.1 309.55 338.47 303.69 343.21 311.65 323.46 320.14 317.1 309.55" style="fill:#ffb573"></polygon><path d="M344.5,315.35c.54,1.09.9,2.31.62,2.91a.88.88,0,0,1-.92.43,1.18,1.18,0,0,1-.81-.41c-1.13-1.26-.91-5.2-.9-5.37a.23.23,0,0,1,.16-.21.25.25,0,0,1,.26.09A17.66,17.66,0,0,1,344.5,315.35Zm-1,2.24a1.15,1.15,0,0,0,.25.37.63.63,0,0,0,.49.27c.34,0,.43-.09.47-.19.37-.69-.72-2.91-1.74-4.44A10.59,10.59,0,0,0,343.49,317.59Z" style="fill:#407BFF"></path><path d="M342.92,312.82a.15.15,0,0,1,0,.09c.05,1.28-.8,4.34-1.88,4.65-.24.09-.62.06-1-.49a1.72,1.72,0,0,1-.22-1.33c.36-1.58,2.61-3,2.72-3.06a.24.24,0,0,1,.23,0A.25.25,0,0,1,342.92,312.82Zm-2.48,3.92.05.12c.22.36.38.31.44.3.62-.24,1.42-2.37,1.52-3.78a5.5,5.5,0,0,0-2.11,2.51,1.19,1.19,0,0,0,.1.85Z" style="fill:#407BFF"></path><path d="M341.23,312.5l-4.78-9.58a.85.85,0,0,1,.23-1.05l6.93-5.62a1.43,1.43,0,0,1,2,.19,1.45,1.45,0,0,1,.17.26c1.66,3.48,3,6.65,5.16,10.94,2.53,5.07,2.5,3.48,5.56,9.41,1.84,3.57-1.92,6.26-2.88,4.84-4.36-6.54-6.82-6.21-10.66-7.65A3.51,3.51,0,0,1,341.23,312.5Z" style="fill:#263238"></path><polygon points="331.93 316.5 336.57 314.5 333.23 305.13 328.8 306.34 331.93 316.5" style="opacity:0.1"></polygon><polygon points="271.72 335.44 292.74 342.45 292.25 351.7 271.12 347.78 271.72 335.44" style="fill:#ffb573"></polygon><path d="M291.27,355.48c-.15,1.21-.53,2.43-1.1,2.77a.87.87,0,0,1-1-.15,1.18,1.18,0,0,1-.45-.79c-.24-1.68,2.13-4.83,2.23-5a.24.24,0,0,1,.26-.08.23.23,0,0,1,.16.21A16.84,16.84,0,0,1,291.27,355.48Zm-2.09,1.31a1.7,1.7,0,0,0,0,.45.66.66,0,0,0,.27.49c.26.21.41.16.5.11.69-.37,1-2.82,1-4.66A10.8,10.8,0,0,0,289.18,356.79Z" style="fill:#407BFF"></path><path d="M291.37,352.51a.29.29,0,0,1,0,.09c-.67,1.1-3.08,3.17-4.14,2.82-.26-.06-.56-.29-.54-.94a1.74,1.74,0,0,1,.55-1.23c1.18-1.11,3.84-1,4-1a.23.23,0,0,1,.2.13A.29.29,0,0,1,291.37,352.51Zm-4.25,1.87,0,.13c0,.42.14.47.2.5.65.14,2.5-1.18,3.36-2.3a5.59,5.59,0,0,0-3.15.91,1.3,1.3,0,0,0-.39.76Z" style="fill:#407BFF"></path><path d="M290.14,351.3l1.35-10.62a.86.86,0,0,1,.77-.75l8.89-.82a1.43,1.43,0,0,1,1.56,1.29,1.5,1.5,0,0,1,0,.3c-.55,3.82-1.19,7.2-1.79,12-.72,5.63.14,4.29-.61,10.91-.45,4-5.07,4.15-5.08,2.43,0-7.86-2.22-9-4.61-12.29A3.46,3.46,0,0,1,290.14,351.3Z" style="fill:#263238"></path><polygon points="278.3 349.11 283.35 350.04 285.37 339.99 281.43 338.68 278.3 349.11" style="opacity:0.1"></polygon><path d="M232.68,233.91s-8.88,15.67-19.88,52.67-3.67,49.67,31,58l33.33,5,2.67-12s-28.12-13.48-44.42-19.16a3.29,3.29,0,0,1-1.9-4.56c5.44-11.1,22.52-47.3,28.65-76.28Z" style="fill:#407BFF"></path><path d="M232.68,233.91s-8.88,15.67-19.88,52.67-3.67,49.67,31,58l33.33,5,2.67-12S251.42,324,235.15,318.34a3.07,3.07,0,0,1-1.77-4.27c5.32-10.84,22.58-47.32,28.75-76.49Z" style="opacity:0.1"></path><path d="M279.24,335.75l-3.82,15s2,2.25,4.38,1.19l3.31-15.32A2.59,2.59,0,0,0,279.24,335.75Z" style="fill:#407BFF"></path><path d="M279.24,335.75l-3.82,15s2,2.25,4.38,1.19l3.31-15.32A2.59,2.59,0,0,0,279.24,335.75Z" style="fill:#fff;opacity:0.6000000000000001"></path><path d="M241.46,245.58c1.28,17.89,7.34,51,12.34,70.67s18.33,23.66,32.33,21,36.67-16,46.33-19l-4-13s-31.38,6.12-44.73,12.17a2.75,2.75,0,0,1-3.88-2.52c0-14.41-1-58.24-13.72-77.32L241.46,235S241.28,242.94,241.46,245.58Z" style="fill:#407BFF"></path><path d="M325.88,304.41l5.08,15.5a4.53,4.53,0,0,0,4-1.25l-5.08-15.33A3.1,3.1,0,0,0,325.88,304.41Z" style="fill:#407BFF"></path><path d="M325.88,304.41l5.08,15.5a4.53,4.53,0,0,0,4-1.25l-5.08-15.33A3.1,3.1,0,0,0,325.88,304.41Z" style="fill:#fff;opacity:0.6000000000000001"></path><path d="M246.3,173.41l-3-15.54a4.68,4.68,0,0,1,0-1.9l8-30.56,3.92-4.18a3.54,3.54,0,0,0,.83-2.27v-2.63a3.56,3.56,0,0,1,.18-1.13L257,113a3.52,3.52,0,0,0-2.28-4.48l-.48-.15a3.51,3.51,0,0,0-2.73.26l-4.62,2.51a3.53,3.53,0,0,0-1.83,2.93l-.41,9s-14,26-13.17,34.83,5,22.08,5,22.08A12.1,12.1,0,0,0,246.3,173.41Z" style="fill:#ffb573"></path><path d="M288.3,182.25l14.83-9.67,11.34-29-1.12-5.16a2.79,2.79,0,0,1,.27-1.92l1.55-2.92a2.83,2.83,0,0,1,2.49-1.5H318a2.8,2.8,0,0,0,1.51-.44l1.73-1.09a2.82,2.82,0,0,1,4,1.06l2.51,6.62a2.82,2.82,0,0,1-.68,3.48l-5.59,5.54S315.8,176.74,312.8,180s-19.34,11.42-19.34,11.42Z" style="fill:#ffb573"></path><path d="M251.3,180.91,249,173.08s1.67-3.5-1.33-3.5A27.91,27.91,0,0,0,233.13,180s-1.5,3.26,1,3.42l2.5,11.5S251.46,188.75,251.3,180.91Z" style="fill:#263238"></path><path d="M273.8,184.75s10.5-2.85,12.5-4.76c0,0,1.09-2.86,3.09-2.53s6.57,7.45,6.57,14.62c0,0,0,3.67-3,1.83,0,0-5.83,4.17-16.5,7.34C276.46,201.25,269.8,190.91,273.8,184.75Z" style="fill:#263238"></path><path d="M259.61,186.38c4.38.6,8.75-.79,11.59-2a3.06,3.06,0,0,0,.45-1c-3.15-4.1-.93-11.69.92-16.81l-11.47,7.07c.39,4.27.18,6.7-6,7.19a4.38,4.38,0,0,0-1.2,1.31C254.53,184,256,185.89,259.61,186.38Z" style="fill:#ffb573"></path><path d="M267.92,169.43l-6.75,4.24a16.58,16.58,0,0,1,.06,3c2.31,0,6.16-1.34,7-3.72A7.11,7.11,0,0,0,267.92,169.43Z" style="opacity:0.2;isolation:isolate"></path><path d="M267.18,142s-11.67-1.63-10.26,3.81S267.18,142,267.18,142Z" style="fill:#263238"></path><path d="M267.18,142s-11.67-1.63-10.26,3.81S267.18,142,267.18,142Z" style="opacity:0.5"></path><path d="M281.84,143.49c-.58-2.07-2-7.86,1-8.44,5.26-1,6.32,4.91,6.32,4.91s7.43-.13,2.77,6.75c0,0,2.94,5.62-3.32,5C284.91,151.29,282.53,145.91,281.84,143.49Z" style="fill:#263238"></path><path d="M281.84,143.49c-.58-2.07-2-7.86,1-8.44,5.26-1,6.32,4.91,6.32,4.91s7.43-.13,2.77,6.75c0,0,2.94,5.62-3.32,5C284.91,151.29,282.53,145.91,281.84,143.49Z" style="opacity:0.2"></path><path d="M280,143.33s3.18-2.68,5.56.8-2,6-2,6S282.38,145,280,143.33Z" style="fill:#407BFF"></path><path d="M273.41,169.66s1.8,4.69-.47,4.83S273.75,172.76,273.41,169.66Z" style="fill:#263238"></path><path d="M280.89,158.58c-3.71,8.31-5.11,11.89-11,14.63-8.93,4.13-18.32-2.26-17.16-11.5,1.06-8.32,7-20.55,16.56-20.74a12.41,12.41,0,0,1,11.64,17.61Z" style="fill:#ffb573"></path><path d="M258.69,152.78c-.27.7-.85,1.11-1.29.95s-.61-.88-.36-1.57.85-1.11,1.29-.93S258.94,152.09,258.69,152.78Z" style="fill:#263238"></path><path d="M258.52,151.34,257,150.23S257.4,151.85,258.52,151.34Z" style="fill:#263238"></path><path d="M259.43,156a19.81,19.81,0,0,1-4.14,3.49,3.26,3.26,0,0,0,2.3,1.39Z" style="fill:#ed893e"></path><path d="M270.67,154.4a.44.44,0,0,1-.42-.3,5.13,5.13,0,0,0-3.09-2.7.43.43,0,0,1-.3-.54.42.42,0,0,1,.53-.29h0a5.93,5.93,0,0,1,3.67,3.27.43.43,0,0,1-.28.54h0A.19.19,0,0,1,270.67,154.4Z" style="fill:#263238"></path><path d="M257.67,148.05a.43.43,0,0,1,0-.84,4.23,4.23,0,0,1,3.88,1,.41.41,0,0,1,0,.59l0,0a.42.42,0,0,1-.6,0h0a3.5,3.5,0,0,0-3.06-.74A.36.36,0,0,1,257.67,148.05Z" style="fill:#263238"></path><path d="M266.51,155.71c-.27.68-.85,1.11-1.29.95s-.61-.88-.36-1.57.85-1.11,1.3-1S266.72,155,266.51,155.71Z" style="fill:#263238"></path><path d="M266.33,154.33l-1.48-1.11S265.22,154.79,266.33,154.33Z" style="fill:#263238"></path><path d="M277.75,163.41a28.19,28.19,0,0,1-1.27-14.68s-15.08-.12-10.22-3.9c0,0-12.71-3.34-7.74-9.06S272.19,134,275.65,139c0,0,7.69,3.1,8.7,11.24,1.19,9.59-10.56,24.19-11.33,20.43C272.57,168.45,277.75,163.41,277.75,163.41Z" style="fill:#263238"></path><path d="M280.74,166a6.53,6.53,0,0,1-4.4,2.31c-2.29.18-3-2-2-3.91.92-1.74,3.2-3.93,5.32-3.24a2.93,2.93,0,0,1,1.77,3.76A3,3,0,0,1,280.74,166Z" style="fill:#ffb573"></path><path d="M273.48,183.2a15.47,15.47,0,0,1-12.31,3.32c-5.62-1.08-6.3-4.49-6.17-6.52-10.51-.1-14.95,2.75-14.95,2.75C232.3,193.5,230.3,237,230.3,237c17.75,5.5,39.29,5.75,39.29,5.75C271.34,228,284,193,284,193S282.47,187,273.48,183.2Z" style="fill:#263238"></path><path d="M253.08,179.62l2.93,0s-.71,4.29,4.66,5.29,12.3-2.46,12.3-2.46l2.95,1.38s-7.65,5.83-16.32,3.83S253.08,179.62,253.08,179.62Z" style="fill:#263238"></path><path d="M253.08,179.62l2.93,0s-.71,4.29,4.66,5.29,12.3-2.46,12.3-2.46l2.95,1.38s-7.65,5.83-16.32,3.83S253.08,179.62,253.08,179.62Z" style="fill:#fff;opacity:0.7000000000000001"></path><path d="M265.87,108.3c-.09-.15-1.1-3.41,3.31-5.43s5.24-.11,7.84-1.37a13.94,13.94,0,0,1-4.71,6.49C268.61,110.9,266.24,108.9,265.87,108.3Z"></path><path d="M255.38,118.59c-5.39,3.37-21.71,12-22.59,10.6s14-12.31,19.4-15.68,10.46-5,11.34-3.56S260.76,115.22,255.38,118.59Z" style="fill:#407BFF"></path><path d="M255.38,118.59c-5.39,3.37-21.71,12-22.59,10.6s14-12.31,19.4-15.68,10.46-5,11.34-3.56S260.76,115.22,255.38,118.59Z" style="fill:#fff;opacity:0.4"></path><path d="M262.32,106.46H266a0,0,0,0,1,0,0v5.4a.81.81,0,0,1-.81.81h-2a.81.81,0,0,1-.81-.81v-5.4A0,0,0,0,1,262.32,106.46Z" transform="translate(216.85 -172.47) rotate(57.95)" style="fill:#263238"></path><path d="M262.32,106.46H266a0,0,0,0,1,0,0v5.4a.81.81,0,0,1-.81.81h-2a.81.81,0,0,1-.81-.81v-5.4A0,0,0,0,1,262.32,106.46Z" transform="translate(216.85 -172.47) rotate(57.95)" style="fill:#fff;opacity:0.5"></path><path d="M277,101.5c-2.6,1.26-3.43-.65-7.84,1.37a8.84,8.84,0,0,0-1.24.7.62.62,0,0,0-.1.81c.78,1,3.74-1.27,4.3-.56s-1.32,1.31-.63,2.24-.81,1.81-.15,2.58a8.07,8.07,0,0,0,.95-.65A13.94,13.94,0,0,0,277,101.5Z" style="fill:#407BFF"></path><path d="M333.06,121c-11.53-1.75-21.55,1.23-22.38,6.65-.47,3.09,6.55,3.94,11,6.46,3.37,1.91,3.41,5.79,8.38,6.54,11.53,1.75,21.55-1.23,22.37-6.65S344.6,122.76,333.06,121Zm-1.94,11.09c-2.66-.41-4.68-1.62-4.51-2.71s2.45-1.65,5.12-1.25,4.68,1.62,4.51,2.71S333.79,132.5,331.12,132.1Z" style="fill:#407BFF"></path><path d="M333.06,121c-11.53-1.75-21.55,1.23-22.38,6.65-.47,3.09,6.55,3.94,11,6.46,3.37,1.91,3.41,5.79,8.38,6.54,11.53,1.75,21.55-1.23,22.37-6.65S344.6,122.76,333.06,121Zm-1.94,11.09c-2.66-.41-4.68-1.62-4.51-2.71s2.45-1.65,5.12-1.25,4.68,1.62,4.51,2.71S333.79,132.5,331.12,132.1Z" style="fill:#263238;opacity:0.9"></path><path d="M324.61,126c0,.85-1.47,1.54-3.29,1.54S318,126.84,318,126s1.47-1.55,3.29-1.55S324.61,125.13,324.61,126Z" style="fill:#407BFF"></path><path d="M324.61,126c0,.85-1.47,1.54-3.29,1.54S318,126.84,318,126s1.47-1.55,3.29-1.55S324.61,125.13,324.61,126Z" style="fill:#fff;opacity:0.9"></path><path d="M334.3,122.84c0,.66-1.33,1.19-3,1.19s-3-.53-3-1.19,1.34-1.19,3-1.19S334.3,122.18,334.3,122.84Z" style="fill:#407BFF"></path><path d="M334.3,122.84c0,.66-1.33,1.19-3,1.19s-3-.53-3-1.19,1.34-1.19,3-1.19S334.3,122.18,334.3,122.84Z" style="fill:#fff;opacity:0.7000000000000001"></path><ellipse cx="341.53" cy="127.15" rx="3.87" ry="1.64" style="fill:#407BFF"></ellipse><ellipse cx="341.53" cy="127.15" rx="3.87" ry="1.64" style="fill:#fff;opacity:0.6000000000000001"></ellipse><path d="M348.61,134.74c0,.82-1.59,1.5-3.54,1.5s-3.54-.68-3.54-1.5,1.58-1.5,3.54-1.5S348.61,133.91,348.61,134.74Z" style="fill:#407BFF"></path><path d="M348.61,134.74c0,.82-1.59,1.5-3.54,1.5s-3.54-.68-3.54-1.5,1.58-1.5,3.54-1.5S348.61,133.91,348.61,134.74Z" style="fill:#fff;opacity:0.8"></path><path d="M337.63,136.44c0,.95-1.7,1.71-3.8,1.71s-3.8-.76-3.8-1.71,1.7-1.7,3.8-1.7S337.63,135.5,337.63,136.44Z" style="fill:#407BFF"></path><path d="M337.63,136.44c0,.95-1.7,1.71-3.8,1.71s-3.8-.76-3.8-1.71,1.7-1.7,3.8-1.7S337.63,135.5,337.63,136.44Z" style="fill:#fff;opacity:0.4"></path><path d="M316.37,133.24s3.81-3.06,6.31-3.14a1,1,0,0,1,1,1c0,.81-.12,1.93-.81,2.13a19,19,0,0,0-3.5,2Z" style="fill:#ffb573"></path><path d="M236.94,196.48c.42-1.85,1.21-5.23,6-1.1s3.75-2.11,7.5-1.91-1.06,7.64-1.06,7.64,5.94-.61,5.88,3-7.7,2.21-7.7,2.21S244,217,240.76,213.17s2.13-8,1.27-11.46S236,200.81,236.94,196.48Z" style="fill:#407BFF"></path><path d="M236.94,196.48c.42-1.85,1.21-5.23,6-1.1s3.75-2.11,7.5-1.91-1.06,7.64-1.06,7.64,5.94-.61,5.88,3-7.7,2.21-7.7,2.21S244,217,240.76,213.17s2.13-8,1.27-11.46S236,200.81,236.94,196.48Z" style="fill:#fff;opacity:0.8"></path><path d="M256.83,232.11c.44-2.36-1.51-7.64,1.74-9.44s3.05,6.41,6.14,4.72,4.1,1.47,2.77,4.72-3.7,3.75-2.77,6.75-1.89.34-6.14-1.66S256.38,234.53,256.83,232.11Z" style="fill:#407BFF"></path><path d="M256.83,232.11c.44-2.36-1.51-7.64,1.74-9.44s3.05,6.41,6.14,4.72,4.1,1.47,2.77,4.72-3.7,3.75-2.77,6.75-1.89.34-6.14-1.66S256.38,234.53,256.83,232.11Z" style="opacity:0.2"></path><path d="M228.73,376.71a48.45,48.45,0,0,0,4.16,31.82c.21.43.91.17.7-.26a47.9,47.9,0,0,1-4.12-31.44c.09-.47-.65-.59-.74-.12Z" style="fill:#407BFF"></path><path d="M238,366.66a3.1,3.1,0,0,1-.76-.12,48.76,48.76,0,0,0-1.79,21.14c.06.47.81.45.75,0A48.12,48.12,0,0,1,238,366.66Z" style="fill:#407BFF"></path><path d="M241.87,356.23a51.55,51.55,0,0,0-2.66,5.17,2.19,2.19,0,0,1,.63.43,50.83,50.83,0,0,1,2.69-5.24C242.78,356.17,242.12,355.81,241.87,356.23Z" style="fill:#407BFF"></path><path d="M256.74,163.29s2.23-.48,8.45-.13c-.74,2.16-2.11,3.86-5.3,3.68a3.26,3.26,0,0,1-3.14-3.24C256.74,163.5,256.74,163.4,256.74,163.29Z" style="fill:#263238"></path><path d="M261.37,165.17a5,5,0,0,0-3.48.88,3.26,3.26,0,0,0,2,.77,5,5,0,0,0,3.48-.89A3.11,3.11,0,0,0,261.37,165.17Z" style="fill:#a02724"></path><path d="M257,163.25a1.54,1.54,0,0,0,1,1.14,28.26,28.26,0,0,0,5.52-.26,1.68,1.68,0,0,0,1.4-1A44.23,44.23,0,0,0,257,163.25Z" style="fill:#fff"></path></g><g id="freepik--Music--inject-71"><path d="M319.16,198.43,305.87,202l1,19.18a8.59,8.59,0,0,0-2.92.32c-3,.83-5.44,2.89-5.35,4.61s2.64,2.45,5.68,1.63,5.44-2.9,5.35-4.62c-.25-4.68-.94-18-.94-18l8.44-2.3Z" style="fill:#407BFF"></path><path d="M366.75,206.06l-7.81,2.12.59,11.28a5.09,5.09,0,0,0-1.72.18c-1.79.49-3.19,1.7-3.14,2.72s1.55,1.44,3.34.95,3.19-1.7,3.14-2.71c-.14-2.75-.55-10.57-.55-10.57l5-1.34Z" style="fill:#407BFF"></path><path d="M237.46,214.88l-9.85,2.68.74,14.22a6.53,6.53,0,0,0-2.16.23c-2.25.62-4,2.15-4,3.43s2,1.81,4.21,1.2,4-2.15,4-3.42c-.18-3.47-.7-13.32-.7-13.32l6.27-1.7Z" style="fill:#407BFF"></path><path d="M237.46,214.88l-9.85,2.68.74,14.22a6.53,6.53,0,0,0-2.16.23c-2.25.62-4,2.15-4,3.43s2,1.81,4.21,1.2,4-2.15,4-3.42c-.18-3.47-.7-13.32-.7-13.32l6.27-1.7Z" style="fill:#fff;opacity:0.2"></path><path d="M318.4,224.34l1.21,23a10.61,10.61,0,0,0-3.5.38c-3.64,1-6.51,3.47-6.41,5.54s3.16,2.93,6.81,1.94,6.51-3.47,6.41-5.53c-.3-5.61-1.13-21.53-1.13-21.53l16.32-4.44,1,18.35a10.64,10.64,0,0,0-3.5.39c-3.65,1-6.52,3.47-6.41,5.53s3.16,2.93,6.8,1.94,6.52-3.47,6.41-5.53c-.29-5.61-1.37-26.17-1.37-26.17Z" style="fill:#407BFF"></path><path d="M323.42,170l.6,11.45a5,5,0,0,0-1.74.19c-1.81.49-3.24,1.72-3.19,2.75s1.57,1.46,3.39,1,3.25-1.73,3.19-2.76c-.14-2.79-.56-10.72-.56-10.72l8.13-2.21.48,9.14A5.21,5.21,0,0,0,332,179c-1.82.5-3.25,1.73-3.2,2.76s1.57,1.46,3.39,1,3.25-1.73,3.19-2.76c-.14-2.79-.68-13-.68-13Z" style="fill:#407BFF"></path><path d="M323.42,170l.6,11.45a5,5,0,0,0-1.74.19c-1.81.49-3.24,1.72-3.19,2.75s1.57,1.46,3.39,1,3.25-1.73,3.19-2.76c-.14-2.79-.56-10.72-.56-10.72l8.13-2.21.48,9.14A5.21,5.21,0,0,0,332,179c-1.82.5-3.25,1.73-3.2,2.76s1.57,1.46,3.39,1,3.25-1.73,3.19-2.76c-.14-2.79-.68-13-.68-13Z" style="opacity:0.2"></path><ellipse cx="321.49" cy="278.74" rx="24.15" ry="12.79" transform="translate(-46.91 65.82) rotate(-10.9)" style="fill:#407BFF"></ellipse><path d="M330.28,288.47l-8.79-9.73L316.94,291a41.06,41.06,0,0,0,13.34-2.57Z" style="fill:#fff"></path><path d="M326,266.44a40.78,40.78,0,0,0-6.78.73A39.82,39.82,0,0,0,312.7,269l8.79,9.73Z" style="fill:#fff"></path><path d="M313.48,291l8-12.21-18.41,9a16.17,16.17,0,0,0,4.53,2.13A27,27,0,0,0,313.48,291Z" style="fill:#263238"></path><path d="M339.9,269.71a15.89,15.89,0,0,0-4.53-2.13,27,27,0,0,0-5.87-1.05l-8,12.21Z" style="fill:#263238"></path><path d="M328.81,277.33c.41,2.14-2.53,4.51-6.57,5.28s-7.66-.32-8.07-2.46,2.53-4.51,6.57-5.29S328.4,275.19,328.81,277.33Z" style="fill:#407BFF"></path><path d="M328.81,277.33c.41,2.14-2.53,4.51-6.57,5.28s-7.66-.32-8.07-2.46,2.53-4.51,6.57-5.29S328.4,275.19,328.81,277.33Z" style="opacity:0.30000000000000004"></path><path d="M322.89,278.47c.08.41-.49.86-1.26,1s-1.46-.06-1.54-.47.49-.86,1.26-1S322.81,278.06,322.89,278.47Z" style="fill:#fff"></path><ellipse cx="370.74" cy="245.81" rx="7.41" ry="13.99" transform="translate(24.53 525.12) rotate(-72.44)" style="fill:#407BFF"></ellipse><path d="M372.54,253.19l-1.8-7.38-5.71,5a24.76,24.76,0,0,0,3.66,1.5A23.31,23.31,0,0,0,372.54,253.19Z" style="fill:#fff"></path><path d="M376.46,240.8a24.76,24.76,0,0,0-3.66-1.5,23.31,23.31,0,0,0-3.85-.87l1.79,7.38Z" style="fill:#fff"></path><path d="M363.29,249.82l7.45-4-11.86-.48a9.28,9.28,0,0,0,1.72,2.33A15.8,15.8,0,0,0,363.29,249.82Z" style="fill:#263238"></path><path d="M382.61,246.29a9.28,9.28,0,0,0-1.72-2.33,16.31,16.31,0,0,0-2.69-2.16l-7.46,4Z" style="fill:#263238"></path><path d="M374.86,247.11c-.38,1.21-2.53,1.6-4.8.88s-3.81-2.28-3.43-3.48,2.53-1.6,4.8-.88S375.24,245.91,374.86,247.11Z" style="fill:#407BFF"></path><path d="M374.86,247.11c-.38,1.21-2.53,1.6-4.8.88s-3.81-2.28-3.43-3.48,2.53-1.6,4.8-.88S375.24,245.91,374.86,247.11Z" style="opacity:0.30000000000000004"></path><path d="M371.53,246.06c-.07.23-.48.3-.92.17s-.72-.44-.65-.67.48-.3.92-.17S371.6,245.83,371.53,246.06Z" style="fill:#fff"></path></g></svg>