<svg xmlns="http://www.w3.org/2000/svg" viewBox="0 0 500 500"><g id="freepik--background-complete--inject-132"><rect y="382.4" width="500" height="0.25" style="fill:#ebebeb"></rect><rect x="416.78" y="398.49" width="33.12" height="0.25" style="fill:#ebebeb"></rect><rect x="322.53" y="401.21" width="8.69" height="0.25" style="fill:#ebebeb"></rect><rect x="396.59" y="389.21" width="19.19" height="0.25" style="fill:#ebebeb"></rect><rect x="52.46" y="390.89" width="43.19" height="0.25" style="fill:#ebebeb"></rect><rect x="104.56" y="390.89" width="6.33" height="0.25" style="fill:#ebebeb"></rect><rect x="131.47" y="395.11" width="93.68" height="0.25" style="fill:#ebebeb"></rect><path d="M237,337.8H43.91a5.71,5.71,0,0,1-5.7-5.71V60.66A5.71,5.71,0,0,1,43.91,55H237a5.71,5.71,0,0,1,5.71,5.71V332.09A5.71,5.71,0,0,1,237,337.8ZM43.91,55.2a5.46,5.46,0,0,0-5.45,5.46V332.09a5.46,5.46,0,0,0,5.45,5.46H237a5.47,5.47,0,0,0,5.46-5.46V60.66A5.47,5.47,0,0,0,237,55.2Z" style="fill:#ebebeb"></path><path d="M453.31,337.8H260.21a5.72,5.72,0,0,1-5.71-5.71V60.66A5.72,5.72,0,0,1,260.21,55h193.1A5.71,5.71,0,0,1,459,60.66V332.09A5.71,5.71,0,0,1,453.31,337.8ZM260.21,55.2a5.47,5.47,0,0,0-5.46,5.46V332.09a5.47,5.47,0,0,0,5.46,5.46h193.1a5.47,5.47,0,0,0,5.46-5.46V60.66a5.47,5.47,0,0,0-5.46-5.46Z" style="fill:#ebebeb"></path><rect x="61.12" y="299.43" width="36.9" height="82.97" style="fill:#ebebeb"></rect><rect x="115.87" y="259.41" width="36.9" height="122.99" style="fill:#ebebeb"></rect><rect x="170.62" y="229.39" width="36.9" height="153.01" style="fill:#ebebeb"></rect><rect x="225.37" y="299.43" width="36.9" height="82.97" style="fill:#ebebeb"></rect><rect x="280.11" y="269.42" width="36.9" height="112.98" style="fill:#ebebeb"></rect><rect x="334.86" y="219.39" width="36.9" height="163.01" style="fill:#ebebeb"></rect><rect x="389.61" y="129.33" width="36.9" height="253.07" style="fill:#ebebeb"></rect><polygon points="243.19 277.5 188.39 207.68 134.84 236.03 81.07 276.25 78.08 272.25 132.15 231.8 132.33 231.7 189.74 201.31 244.44 271 296.01 241.31 351.93 192.61 408.64 101.51 412.89 104.15 355.78 195.89 298.72 245.52 243.19 277.5" style="fill:#e0e0e0"></polygon><path d="M86.17,274.25a6.6,6.6,0,1,1-6.6-6.6A6.6,6.6,0,0,1,86.17,274.25Z" style="fill:#fafafa"></path><path d="M79.57,283.35a9.1,9.1,0,1,1,9.1-9.1A9.11,9.11,0,0,1,79.57,283.35Zm0-13.2a4.1,4.1,0,1,0,4.1,4.1A4.1,4.1,0,0,0,79.57,270.15Z" style="fill:#e0e0e0"></path><circle cx="133.5" cy="233.91" r="6.6" style="fill:#fafafa"></circle><path d="M133.5,243a9.1,9.1,0,1,1,9.09-9.1A9.11,9.11,0,0,1,133.5,243Zm0-13.19a4.1,4.1,0,1,0,4.09,4.09A4.1,4.1,0,0,0,133.5,229.82Z" style="fill:#e0e0e0"></path><path d="M195.66,204.53a6.6,6.6,0,1,1-6.59-6.6A6.6,6.6,0,0,1,195.66,204.53Z" style="fill:#fafafa"></path><path d="M189.07,213.63a9.1,9.1,0,1,1,9.09-9.1A9.11,9.11,0,0,1,189.07,213.63Zm0-13.2a4.1,4.1,0,1,0,4.09,4.1A4.11,4.11,0,0,0,189.07,200.43Z" style="fill:#e0e0e0"></path><path d="M250.41,273.09a6.6,6.6,0,1,1-6.59-6.6A6.6,6.6,0,0,1,250.41,273.09Z" style="fill:#fafafa"></path><path d="M243.82,282.19a9.1,9.1,0,1,1,9.09-9.1A9.11,9.11,0,0,1,243.82,282.19Zm0-13.2a4.1,4.1,0,1,0,4.09,4.1A4.11,4.11,0,0,0,243.82,269Z" style="fill:#e0e0e0"></path><circle cx="298.56" cy="242.71" r="6.6" style="fill:#fafafa"></circle><path d="M298.56,251.81a9.1,9.1,0,1,1,9.1-9.1A9.11,9.11,0,0,1,298.56,251.81Zm0-13.2a4.1,4.1,0,1,0,4.1,4.1A4.1,4.1,0,0,0,298.56,238.61Z" style="fill:#e0e0e0"></path><circle cx="353.79" cy="193.58" r="6.6" style="fill:#fafafa"></circle><path d="M353.79,202.67a9.1,9.1,0,1,1,9.1-9.09A9.1,9.1,0,0,1,353.79,202.67Zm0-13.19a4.1,4.1,0,1,0,4.1,4.1A4.1,4.1,0,0,0,353.79,189.48Z" style="fill:#e0e0e0"></path><circle cx="409.58" cy="104.52" r="6.6" style="fill:#fafafa"></circle><path d="M409.58,113.62a9.1,9.1,0,1,1,9.1-9.1A9.11,9.11,0,0,1,409.58,113.62Zm0-13.19a4.1,4.1,0,1,0,4.1,4.09A4.1,4.1,0,0,0,409.58,100.43Z" style="fill:#e0e0e0"></path></g><g id="freepik--Shadow--inject-132"><ellipse id="freepik--path--inject-132" cx="250" cy="416.24" rx="193.89" ry="11.32" style="fill:#f5f5f5"></ellipse></g><g id="freepik--Plant--inject-132"><path d="M382,385.58l-.94,0c0-1.41,1.17-34.45,6.91-40,5.92-5.74,12.86-.08,12.93,0l-.6.73c-.26-.22-6.37-5.18-11.67,0C383.13,351.52,382,385.24,382,385.58Z" style="fill:#407BFF"></path><path d="M381.5,392.21l-.94-.09c0-.4,3.71-40.12-10.68-56.63l.72-.62C385.25,351.69,381.54,391.81,381.5,392.21Z" style="fill:#407BFF"></path><path d="M382,388c-.13-1.88-2.9-46,8.16-56.2l.64.7c-10.73,9.87-7.89,55-7.86,55.44Z" style="fill:#407BFF"></path><path d="M380.56,387.94c0-.3-.35-30-8.21-34.47a5,5,0,0,0-4.58-.47c-4.61,1.9-7.07,10.71-7.09,10.8l-.91-.25c.1-.38,2.6-9.34,7.64-11.43a5.92,5.92,0,0,1,5.41.53c8.33,4.77,8.67,34,8.68,35.28Z" style="fill:#407BFF"></path><path d="M383.79,388c-.05-.95-1.27-23.44,5.11-31.77,1.69-2.2,3.57-3.26,5.62-3.11,4.52.32,8,6.46,8.19,6.72l-.82.46c0-.06-3.42-6-7.44-6.24-1.7-.11-3.31.81-4.8,2.75-6.17,8.05-4.93,30.91-4.91,31.14Z" style="fill:#407BFF"></path><path d="M382.53,391.08l-.95-.08c0-.54,4-54.12-2.59-63.05l.76-.57C386.56,336.6,382.69,388.86,382.53,391.08Z" style="fill:#407BFF"></path><path d="M365.57,357.46s4.09,1.5,2.87,5.06-14.12,9.4-14.12,9.4-5.41-5-.44-13S365.46,354.91,365.57,357.46Z" style="fill:#407BFF"></path><path d="M365.57,357.46s4.09,1.5,2.87,5.06-14.12,9.4-14.12,9.4-5.41-5-.44-13S365.46,354.91,365.57,357.46Z" style="fill:#fff;isolation:isolate;opacity:0.4"></path><path d="M383.32,350.69s-4.34-.18-4.59,3.57,9.42,14.11,9.42,14.11,6.9-2.49,5.41-11.84S384.4,348.39,383.32,350.69Z" style="fill:#407BFF"></path><path d="M383.32,350.69s-4.34-.18-4.59,3.57,9.42,14.11,9.42,14.11,6.9-2.49,5.41-11.84S384.4,348.39,383.32,350.69Z" style="fill:#fff;isolation:isolate;opacity:0.4"></path><path d="M387,332.76s-2.89-.32-2.66-2.08,11.27-6.31,17.78,1c0,0-4.17,7.16-10.2,7.25S387,332.76,387,332.76Z" style="fill:#407BFF"></path><path d="M387,332.76s-2.89-.32-2.66-2.08,11.27-6.31,17.78,1c0,0-4.17,7.16-10.2,7.25S387,332.76,387,332.76Z" style="fill:#fff;isolation:isolate;opacity:0.4"></path><path d="M381.6,328.47s2.63,1.27,3.36-.36-6.22-11.31-15.63-8.52c0,0-.25,8.28,4.81,11.55S381.6,328.47,381.6,328.47Z" style="fill:#407BFF"></path><path d="M381.6,328.47s2.63,1.27,3.36-.36-6.22-11.31-15.63-8.52c0,0-.25,8.28,4.81,11.55S381.6,328.47,381.6,328.47Z" style="fill:#fff;isolation:isolate;opacity:0.4"></path><path d="M395.33,356s-2-1.62.16-2.41,12.75-.56,12.86,9.93c0,0-12.34,2.05-13.87-1.94S395.33,356,395.33,356Z" style="fill:#407BFF"></path><path d="M395.33,356s-2-1.62.16-2.41,12.75-.56,12.86,9.93c0,0-12.34,2.05-13.87-1.94S395.33,356,395.33,356Z" style="fill:#fff;isolation:isolate;opacity:0.4"></path><path d="M370.17,332.49s2-1.61-.16-2.4-12.75-.57-12.86,9.93c0,0,12.33,2.05,13.86-1.95S370.17,332.49,370.17,332.49Z" style="fill:#407BFF"></path><path d="M370.17,332.49s2-1.61-.16-2.4-12.75-.57-12.86,9.93c0,0,12.33,2.05,13.86-1.95S370.17,332.49,370.17,332.49Z" style="fill:#fff;isolation:isolate;opacity:0.4"></path><path d="M376.69,341s.18-2-1.41-1.2-7.11,6.73-1.38,12.38c0,0,7.7-5.7,6.32-8.68S376.69,341,376.69,341Z" style="fill:#407BFF"></path><path d="M376.69,341s.18-2-1.41-1.2-7.11,6.73-1.38,12.38c0,0,7.7-5.7,6.32-8.68S376.69,341,376.69,341Z" style="fill:#fff;isolation:isolate;opacity:0.4"></path><path d="M397.12,343.74s-1.2-1.56.55-1.76,9.6,1.9,7.77,9.74c0,0-9.56-.72-10-4S397.12,343.74,397.12,343.74Z" style="fill:#407BFF"></path><path d="M397.12,343.74s-1.2-1.56.55-1.76,9.6,1.9,7.77,9.74c0,0-9.56-.72-10-4S397.12,343.74,397.12,343.74Z" style="fill:#fff;isolation:isolate;opacity:0.4"></path><polygon points="366.29 417.03 397.2 417.03 401.31 386.96 362.18 386.96 366.29 417.03" style="fill:#263238"></polygon><polygon points="366.29 417.03 397.2 417.03 401.31 386.96 362.18 386.96 366.29 417.03" style="fill:#fff;isolation:isolate;opacity:0.2"></polygon><path d="M405.19,384.53v2.85a3.46,3.46,0,0,1-3.46,3.46H361.38a3.46,3.46,0,0,1-3.46-3.46v-2.85Z" style="fill:#263238"></path></g><g id="freepik--Arrow--inject-132"><path d="M402,167.18h-8.15c-.55,19.72-7,124.58-82.06,183.42-66.67,52.28-136.42,58.31-177.46,58.31-7.19,0-13.49-.18-18.75-.34-3.58-.1-6.68-.19-9-.19v-40c3,0,6.33.1,10.23.21,33.56,1,103.39,3,170.35-49.47,59.33-46.53,66-134.43,66.7-151.94h-8l28.11-38Z" style="fill:#407BFF"></path><path d="M402,167.18h-8.15c-.55,19.72-7,124.58-82.06,183.42-66.67,52.28-136.42,58.31-177.46,58.31-7.19,0-13.49-.18-18.75-.34-3.58-.1-6.68-.19-9-.19V393.66c90.48-1,151.27-19.23,199.91-61,66.79-57.34,70.74-164.58,70.74-164.58l14.38-4-17.66-34.95Z" style="isolation:isolate;opacity:0.2"></path><path d="M393.79,169.6h-40a1.5,1.5,0,0,1,0-3h40a1.5,1.5,0,0,1,0,3Z" style="fill:#407BFF"></path><path d="M393.79,169.6h-40a1.5,1.5,0,0,1,0-3h40a1.5,1.5,0,0,1,0,3Z" style="fill:#fff;opacity:0.4"></path></g><g id="freepik--speech-bubble--inject-132"><path d="M136.51,137.57H107.78a8.85,8.85,0,0,0-8.85,8.85v25a8.85,8.85,0,0,0,8.85,8.85h8.39l0,9.89,6-9.89h14.39a8.85,8.85,0,0,0,8.84-8.85v-25A8.84,8.84,0,0,0,136.51,137.57Z" style="fill:#407BFF"></path><path d="M136.51,137.57H107.78a8.85,8.85,0,0,0-8.85,8.85v25a8.85,8.85,0,0,0,8.85,8.85h8.39l0,9.89,6-9.89h14.39a8.85,8.85,0,0,0,8.84-8.85v-25A8.84,8.84,0,0,0,136.51,137.57Z" style="fill:#fff;opacity:0.7000000000000001"></path><circle cx="122.14" cy="158.81" r="14.26" transform="translate(-60.48 241.2) rotate(-76.72)" style="fill:#407BFF"></circle><path d="M120.65,165.18a1.31,1.31,0,0,1-1-.46l-5.6-6.59a1.31,1.31,0,0,1,2-1.7l4.6,5.41,7.58-8.94a1.31,1.31,0,0,1,2,1.7l-8.59,10.12A1.29,1.29,0,0,1,120.65,165.18Z" style="fill:#fff"></path></g><g id="freepik--Character--inject-132"><path d="M169.14,192.56l-.82,1.71s-4,3.55-2.35,5.89l3.26,1.68,4.34-2.39a2.56,2.56,0,0,0,1.28-1.77l.58-3.16a2.56,2.56,0,0,0-1.85-2.93l-1.49-.39A2.56,2.56,0,0,0,169.14,192.56Z" style="fill:#e4897b"></path><polygon points="164.47 201.76 165.39 199.18 169.92 201.51 168.86 203.87 164.47 201.76" style="fill:#407BFF"></polygon><polygon points="164.47 201.76 165.39 199.18 169.92 201.51 168.86 203.87 164.47 201.76" style="fill:#fff;opacity:0.7000000000000001"></polygon><path d="M169.54,203.21c-1.69,4.3-3.55,8.48-5.61,12.61-1,2.06-2.1,4.13-3.29,6.17-.29.51-.6,1-.92,1.54s-.62,1-1,1.55l-.53.79-.62.82-.31.41c-.14.17-.33.36-.5.54a8.47,8.47,0,0,1-1,.92,18.64,18.64,0,0,1-3.77,2.29,37,37,0,0,1-3.56,1.45,67.87,67.87,0,0,1-7,2c-1.8.43-3.58.8-5.37,1.13-2,.37-4,.68-6.05.93-.83.11-1.66.21-2.5.3l-1-9.17c4.28-.57,8.72-1.27,13-2.13,2.12-.42,4.21-.92,6.19-1.48,1-.29,1.94-.61,2.81-1a11.65,11.65,0,0,0,2.15-1.05l.27-.18.1-.07.22-.25.45-.51.47-.59c.32-.39.65-.8,1-1.23s.64-.85,1-1.3c1.27-1.78,2.55-3.61,3.8-5.47,2.52-3.71,6.76-11.47,6.76-11.47Z" style="fill:#263238"></path><path d="M136.09,235.44c-2,.37-4,.68-6.05.93l-1.33-5.19A17,17,0,0,1,136.09,235.44Z" style="opacity:0.30000000000000004"></path><path d="M96.19,244.64a123.8,123.8,0,0,1,9.48,16.55c2.08,4.25,3.89,8.4,5.45,12.2,3.65,8.92,5.91,15.94,7,18.2l30-13.61c-7.87-36.2-22.28-50.22-22.28-50.22a63.27,63.27,0,0,0-7.62,2.4c-.53.2-1,.42-1.58.65a118.67,118.67,0,0,0-12.21,6.66c-.74.45-1.48.92-2.19,1.4A26.94,26.94,0,0,0,96.19,244.64Z" style="fill:#407BFF"></path><path d="M96.19,244.64a123.8,123.8,0,0,1,9.48,16.55c2.08,4.25,3.89,8.4,5.45,12.2,3.65,8.92,5.91,15.94,7,18.2l30-13.61c-7.87-36.2-22.28-50.22-22.28-50.22a63.27,63.27,0,0,0-7.62,2.4c-.53.2-1,.42-1.58.65a118.67,118.67,0,0,0-12.21,6.66c-.74.45-1.48.92-2.19,1.4A26.94,26.94,0,0,0,96.19,244.64Z" style="fill:#fff;opacity:0.7000000000000001"></path><polygon points="97.35 411.4 103.12 413.33 109.22 400.51 103.45 398.58 97.35 411.4" style="fill:#e4897b"></polygon><polygon points="200.3 413.29 206.1 411.43 203.45 397.49 197.66 399.34 200.3 413.29" style="fill:#e4897b"></polygon><path d="M140.14,273.66s1,62.19-1.16,76.31-30.25,57.51-30.25,57.51l-10.18-5.11s22.49-46.51,23.11-52.55-5.23-55.48-5.23-55.48Z" style="fill:#263238"></path><path d="M116.43,294.34s.21,1.86.57,4.91c.47,4.1,1.18,10.35,1.9,17.1,1.51,14,3.1,30.17,2.76,33.46-.62,6-23.11,52.56-23.11,52.56l10.18,5.1S136.88,364.08,139,350s1.16-76.31,1.16-76.31Z" style="fill:#fff;opacity:0.1"></path><path d="M144,270.93s28.32,38.86,37.57,54.12c10.14,16.72,24.71,76.35,24.71,76.35l-9.6,5.66s-16.71-54-27.82-70c-12.42-17.82-43.54-52.29-43.54-52.29Z" style="fill:#263238"></path><g style="opacity:0.1"><path d="M144,270.93s28.32,38.86,37.57,54.12c10.14,16.72,24.71,76.35,24.71,76.35l-9.6,5.66s-16.71-54-27.82-70c-12.42-17.82-43.54-52.29-43.54-52.29Z" style="fill:#fff"></path></g><path d="M206.7,410h-7.42a.55.55,0,0,0-.52.42l-1.25,5.41a.89.89,0,0,0,.89,1.08c2.38,0,4.12-.19,7.13-.2,1.85,0,7.42.18,10,.17s2.9-2.53,1.86-2.75c-4.68-1-8.2-2.42-9.69-3.77A1.48,1.48,0,0,0,206.7,410Z" style="fill:#263238"></path><path d="M118.46,239a90.82,90.82,0,0,1,9.72,12.08c.16,1.37,1.12,4.36,1.17,5.79-1.21-.89-3.55-2.82-4.85-3.66-2.81-5.42-5.21-11.14-7.22-13.64Z" style="fill:#407BFF"></path><polygon points="119.17 240.82 118.98 237.56 116.58 237.58 115.48 239.17 119.17 240.82" style="fill:#407BFF"></polygon><path d="M116.49,237.62a13.74,13.74,0,0,1-11.44.47c1-2.5-.15-6.22-1.83-9.57a43.74,43.74,0,0,0-3.12-5.27l10.65,3.18c.35,2.08.9,4,2.17,5.11a4.35,4.35,0,0,0,3.83.83C118.12,233.38,120,236,116.49,237.62Z" style="fill:#e4897b"></path><path d="M116.58,237.58s-.57,2.28-1.37,4.65c-2.85-.17-9.7-1-10.86-4.09a3.28,3.28,0,0,1,.82-2.08A36,36,0,0,0,116.58,237.58Z" style="fill:#fff"></path><path d="M116.58,237.58a17.53,17.53,0,0,1,4.49,2c1.13-1.91-3-7-3.89-7.33a8.64,8.64,0,0,0-4-.42A9.47,9.47,0,0,1,116.58,237.58Z" style="fill:#fff"></path><path d="M112.92,231.54a18.71,18.71,0,0,1-9.7-3,43.74,43.74,0,0,0-3.12-5.27l10.65,3.18C111.1,228.51,111.65,230.45,112.92,231.54Z" style="opacity:0.2"></path><path d="M158.46,288.74l-10.36,2.85-9.16-10.81-.4,14.64-23.06,7.12a72.34,72.34,0,0,0-1.55-18.35c-.05-.21-.1-.42-.17-.65-1.14-4.18-4.71-11.86-8.43-19.29-5-10-10.24-19.53-10.24-19.53a30.91,30.91,0,0,1,8.08-6.47s13.4,8.79,26.18,18.61c0,0-3-21.42-13.11-25.89a33,33,0,0,1,10.3-3.51s15,16.7,19.94,43.7Z" style="fill:#263238"></path><path d="M112.94,246.87l-.81,8.13s14.58.73,25.15,10.7l-5.51-6.25.79-16.81-6.81-2.29,2.34-6.22s-8-4-11.85-3.16c10.09,4.47,13.11,25.89,13.11,25.89-12.78-9.82-26.19-18.61-26.19-18.61a20.94,20.94,0,0,0-.45,11.51Z" style="fill:#fff;opacity:0.1"></path><path d="M112.36,208.36c1.58,1.86,3.07,6.41-.53,6.25S109.65,205.17,112.36,208.36Z" style="fill:#263238"></path><path d="M98.15,217.77c2,5.65,2.87,9,6.62,11.15,5.63,3.14,12-1.59,11.69-7.74-.24-5.53-3.47-13.83-9.74-14.45A8.25,8.25,0,0,0,98.15,217.77Z" style="fill:#e4897b"></path><path d="M100.74,213.15,98.15,207s-6.76,2.28-5.05,5.5c-2.87,3.33,1.23,8.25,7.27,9,1.77-3.26-.71-8.28-.71-8.28C100,213.19,100.37,213.17,100.74,213.15Z" style="fill:#263238"></path><path d="M97.3,223.2a5.62,5.62,0,0,0,3.61,2.39c2,.36,2.77-1.44,2.09-3.21-.61-1.58-2.37-3.68-4.27-3.25A2.59,2.59,0,0,0,97.3,223.2Z" style="fill:#e4897b"></path><path d="M107.31,216.8c.14.46.49.77.8.68s.44-.54.31-1-.49-.78-.79-.69S107.18,216.33,107.31,216.8Z" style="fill:#263238"></path><path d="M112.6,215.23c.13.47.49.77.79.68s.45-.54.31-1-.49-.77-.79-.68S112.46,214.76,112.6,215.23Z" style="fill:#263238"></path><path d="M111,216a16.7,16.7,0,0,0,3.37,3.19,2.88,2.88,0,0,1-2.11,1Z" style="fill:#de5753"></path><path d="M110.2,222.81a3.42,3.42,0,0,0,.63-.09.15.15,0,0,0,.12-.17.16.16,0,0,0-.17-.11,3.79,3.79,0,0,1-3.38-.83.15.15,0,0,0-.2,0,.14.14,0,0,0,0,.21A4,4,0,0,0,110.2,222.81Z" style="fill:#263238"></path><path d="M104.7,214.85a.28.28,0,0,0,.29,0,2.31,2.31,0,0,1,2.06-.23.29.29,0,0,0,.39-.13.3.3,0,0,0-.14-.38,2.85,2.85,0,0,0-2.61.26.28.28,0,0,0-.1.39A.35.35,0,0,0,104.7,214.85Z" style="fill:#263238"></path><path d="M114.47,211.53a.25.25,0,0,0,0-.17.29.29,0,0,0-.31-.25,2.85,2.85,0,0,0-2.2,1.4.28.28,0,0,0,.13.38.28.28,0,0,0,.38-.12,2.23,2.23,0,0,1,1.75-1.09A.27.27,0,0,0,114.47,211.53Z" style="fill:#263238"></path><path d="M98.8,216.66s3.25-3,4.08-6c0,0,3.89-.56,5.21.56a1.89,1.89,0,0,0-.68-2.47s2.85-.55,4.13,1a2.39,2.39,0,0,0,.24-2.87,3.23,3.23,0,0,1,2.53,1.7s.35-7.26-9.94-5a7.65,7.65,0,0,1,2.07-1.33s-7.8.13-12,4.83S93.1,216.15,98.8,216.66Z" style="fill:#263238"></path><path d="M104.63,410H97.22a.55.55,0,0,0-.52.42l-1.25,5.41a.89.89,0,0,0,.88,1.08c2.39,0,4.13-.19,7.14-.2,1.85,0,7.42.18,10,.17s2.9-2.53,1.86-2.75c-4.68-1-8.2-2.42-9.69-3.77A1.48,1.48,0,0,0,104.63,410Z" style="fill:#263238"></path><path d="M86.76,418.53c-1.34,0-2.7,0-4.09-.13a1.5,1.5,0,1,1,.18-3c14,.85,25.14-2.8,33.11-10.86,15.73-15.91,15-44.79,14.34-53.27-3.48-48.24,8.18-89.59,8.3-90l.08-.2,66.56-147.42a25.93,25.93,0,0,1,23.63-15.26h40.7a28.87,28.87,0,0,1,16.9,5.43L373.22,166a1.5,1.5,0,0,1-1.75,2.44l-86.75-62.15a25.88,25.88,0,0,0-15.15-4.87h-40.7A22.89,22.89,0,0,0,208,114.88L141.46,262.19c-.64,2.3-11.52,42.33-8.17,88.87.82,11.27,1,39.24-15.2,55.59C110.29,414.54,99.77,418.53,86.76,418.53Z" style="fill:#407BFF"></path><path d="M86.76,418.53c-1.34,0-2.7,0-4.09-.13a1.5,1.5,0,1,1,.18-3c14,.85,25.14-2.8,33.11-10.86,15.73-15.91,15-44.79,14.34-53.27-3.48-48.24,8.18-89.59,8.3-90l.08-.2,66.56-147.42a25.93,25.93,0,0,1,23.63-15.26h40.7a28.87,28.87,0,0,1,16.9,5.43L373.22,166a1.5,1.5,0,0,1-1.75,2.44l-86.75-62.15a25.88,25.88,0,0,0-15.15-4.87h-40.7A22.89,22.89,0,0,0,208,114.88L141.46,262.19c-.64,2.3-11.52,42.33-8.17,88.87.82,11.27,1,39.24-15.2,55.59C110.29,414.54,99.77,418.53,86.76,418.53Z" style="fill:#fff;opacity:0.4"></path><path d="M137.87,261.68S125,277.83,113.76,283.54c-1.14-4.18-4.71-11.86-8.43-19.29,1.51-4.23,3-7.39,3-7.39a37.45,37.45,0,0,1,6.07,6.62,83.06,83.06,0,0,0,21.1-4.41Z" style="opacity:0.30000000000000004"></path><path d="M139.36,257.55s-5.45-1-5.86,1.79l1.2,3.43,5.34,1.35a1.91,1.91,0,0,0,1.29-.12l2.34-1.1a1.92,1.92,0,0,0,1.09-1.54L145,259a1.92,1.92,0,0,0-2.27-2.1Z" style="fill:#e4897b"></path><polygon points="134.52 264.29 136.05 263.51 133.18 259.07 131.65 260.11 134.52 264.29" style="fill:#407BFF"></polygon><polygon points="134.52 264.29 136.05 263.51 133.18 259.07 131.65 260.11 134.52 264.29" style="fill:#fff;opacity:0.7000000000000001"></polygon><path d="M95.08,244.72c-1.64,3,8.16,28.94,12,32.07C111.93,280.67,136,265,136,265l-4.27-5.55s-19,6.82-19.81,6.25-4.09-10-4.09-10-3.33-5.12-6.87-7.77A18.1,18.1,0,0,0,95.08,244.72Z" style="fill:#263238"></path><path d="M227.44,99.25a20.28,20.28,0,1,0,20.28,20.28A20.29,20.29,0,0,0,227.44,99.25Zm-12,23.84a3.56,3.56,0,1,1,3.56-3.56A3.56,3.56,0,0,1,215.44,123.09Zm12,12a3.56,3.56,0,1,1,3.56-3.56A3.56,3.56,0,0,1,227.44,135.09Zm0-24a3.56,3.56,0,1,1,3.56-3.56A3.56,3.56,0,0,1,227.44,111.1Zm12,12a3.56,3.56,0,1,1,3.56-3.56A3.56,3.56,0,0,1,239.43,123.09Z" style="fill:#263238"></path><path d="M227.44,99.25a20.28,20.28,0,1,0,20.28,20.28A20.29,20.29,0,0,0,227.44,99.25Zm-12,23.84a3.56,3.56,0,1,1,3.56-3.56A3.56,3.56,0,0,1,215.44,123.09Zm12,12a3.56,3.56,0,1,1,3.56-3.56A3.56,3.56,0,0,1,227.44,135.09Zm0-24a3.56,3.56,0,1,1,3.56-3.56A3.56,3.56,0,0,1,227.44,111.1Zm12,12a3.56,3.56,0,1,1,3.56-3.56A3.56,3.56,0,0,1,239.43,123.09Z" style="fill:#fff;opacity:0.4"></path><circle cx="227.44" cy="119.53" r="6.71" style="opacity:0.2"></circle><g style="opacity:0.2"><path d="M227.44,138.39a18.86,18.86,0,1,1,18.86-18.86A18.88,18.88,0,0,1,227.44,138.39Zm0-36.51a17.65,17.65,0,1,0,17.64,17.65A17.67,17.67,0,0,0,227.44,101.88Z"></path></g><circle cx="227.44" cy="119.53" r="5.58" style="fill:#263238"></circle><path d="M269.69,99.25A20.28,20.28,0,1,0,290,119.53,20.28,20.28,0,0,0,269.69,99.25Zm-12,23.84a3.56,3.56,0,1,1,3.56-3.56A3.56,3.56,0,0,1,257.7,123.09Zm12,12a3.56,3.56,0,1,1,3.56-3.56A3.57,3.57,0,0,1,269.69,135.09Zm0-24a3.56,3.56,0,1,1,3.56-3.56A3.57,3.57,0,0,1,269.69,111.1Zm12,12a3.56,3.56,0,1,1,3.56-3.56A3.56,3.56,0,0,1,281.69,123.09Z" style="fill:#263238"></path><path d="M269.69,99.25A20.28,20.28,0,1,0,290,119.53,20.28,20.28,0,0,0,269.69,99.25Zm-12,23.84a3.56,3.56,0,1,1,3.56-3.56A3.56,3.56,0,0,1,257.7,123.09Zm12,12a3.56,3.56,0,1,1,3.56-3.56A3.57,3.57,0,0,1,269.69,135.09Zm0-24a3.56,3.56,0,1,1,3.56-3.56A3.57,3.57,0,0,1,269.69,111.1Zm12,12a3.56,3.56,0,1,1,3.56-3.56A3.56,3.56,0,0,1,281.69,123.09Z" style="fill:#fff;opacity:0.4"></path><path d="M276.4,119.53a6.71,6.71,0,1,1-6.71-6.71A6.7,6.7,0,0,1,276.4,119.53Z" style="opacity:0.2"></path><g style="opacity:0.2"><path d="M269.69,138.39a18.86,18.86,0,1,1,18.87-18.86A18.88,18.88,0,0,1,269.69,138.39Zm0-36.51a17.65,17.65,0,1,0,17.65,17.65A17.66,17.66,0,0,0,269.69,101.88Z"></path></g><circle cx="269.69" cy="119.53" r="5.58" style="fill:#263238"></circle><path d="M269.66,109.22h0a9.11,9.11,0,0,1-9-7.58L258.13,86.8H239l-2.54,14.84a9.11,9.11,0,0,1-9,7.58h0a10.38,10.38,0,0,0-10.49,10,10.17,10.17,0,0,0,10.16,10.35H270a10.17,10.17,0,0,0,10.16-10.35A10.38,10.38,0,0,0,269.66,109.22Z" style="fill:#263238"></path><path d="M269.66,109.22h0a9.11,9.11,0,0,1-9-7.58L258.13,86.8H239l-2.54,14.84a9.11,9.11,0,0,1-9,7.58h0a10.38,10.38,0,0,0-10.49,10,10.17,10.17,0,0,0,10.16,10.35H270a10.17,10.17,0,0,0,10.16-10.35A10.38,10.38,0,0,0,269.66,109.22Z" style="fill:#fff;opacity:0.2"></path><circle cx="227.44" cy="119.53" r="5.58" style="fill:#fff;opacity:0.4"></circle><circle cx="269.69" cy="119.53" r="5.58" style="fill:#fff;opacity:0.4"></circle><path d="M233,85.35h31.11a0,0,0,0,1,0,0v5A1.71,1.71,0,0,1,262.4,92H234.73A1.71,1.71,0,0,1,233,90.33v-5A0,0,0,0,1,233,85.35Z" style="fill:#263238"></path><path d="M233,85.35h31.11a0,0,0,0,1,0,0v5A1.71,1.71,0,0,1,262.4,92H234.73A1.71,1.71,0,0,1,233,90.33v-5A0,0,0,0,1,233,85.35Z" style="fill:#fff;opacity:0.4"></path></g></svg>
